<svg xmlns="http://www.w3.org/2000/svg" xmlns:xlink="http://www.w3.org/1999/xlink" version="1.1" x="0px" y="0px" viewBox="0 0 100 125" enable-background="new 0 0 100 100" xml:space="preserve"><path fill="#000000" d="M74.561,10.38h-1.919c-1.345,0-2.438,1.094-2.438,2.438v4.118c0,1.33,1.072,2.411,2.397,2.434v3.801H53.241  c-0.41,0-0.779,0.251-0.931,0.633l-3.871,9.811h-2.096v-2.255c0-1.43-1.202-2.593-2.68-2.593h-0.839  c-1.479,0-2.681,1.163-2.681,2.593v2.255h-9.601c-0.553,0-1,0.447-1,1v5.096c0,6.177,4.18,13.115,6.259,16.188h-5.926  c-0.553,0-1,0.447-1,1v5.995c0,0.553,0.447,1,1,1h1.949v8.519c-1.512,1.707-2.707,4.539-3.472,6.704  c-1.066,3.021-0.796,5.896,0.761,8.098c1.557,2.2,4.179,3.412,7.384,3.412H49.99c3.205,0,5.827-1.212,7.384-3.412  s1.826-5.076,0.747-8.128c-0.753-2.137-1.947-4.967-3.458-6.674v-8.519h1.949c0.553,0,1-0.447,1-1v-5.995c0-0.553-0.447-1-1-1  h-5.927c2.079-3.072,6.259-10.011,6.259-16.188v-5.096c0-0.553-0.447-1-1-1H50.59l3.332-8.443h19.679c0.553,0,1-0.447,1-1V19.37  C75.927,19.348,77,18.267,77,16.937v-4.118C77,11.474,75.905,10.38,74.561,10.38z M42.145,31.359c0-0.321,0.312-0.593,0.681-0.593  h0.839c0.368,0,0.68,0.271,0.68,0.593v2.255h-2.199V31.359z M55.741,86.058c-1.172,1.655-3.214,2.567-5.751,2.567H36.499  c-2.537,0-4.58-0.912-5.751-2.567c-0.907-1.282-1.213-2.91-0.909-4.704c0.018-0.011,0.037-0.015,0.054-0.026  c0.078-0.055,7.869-5.392,13.351-5.392c5.47,0,13.276,5.338,13.354,5.392c0.017,0.012,0.037,0.013,0.054,0.022  C56.954,83.137,56.651,84.771,55.741,86.058z M52.954,73.511c0.907,0.911,1.872,2.625,2.777,4.903  c-2.836-1.694-8.152-4.479-12.488-4.479c-4.339,0-9.652,2.784-12.486,4.478c0.9-2.269,1.868-3.989,2.777-4.901  c0.188-0.188,0.292-0.441,0.292-0.706v-8.913h18.837v8.913C52.663,73.07,52.768,73.324,52.954,73.511z M55.612,61.893H30.877v-3.995  h24.735V61.893z M48.244,55.897h-10c-1.248-1.732-6.163-8.909-6.66-15.188h23.32C54.407,46.988,49.492,54.165,48.244,55.897z   M54.944,38.71h-23.4v-3.096h23.4V38.71z M75,16.937c0,0.237-0.201,0.438-0.439,0.438h-1.919c-0.237,0-0.438-0.2-0.438-0.438v-4.118  c0-0.237,0.201-0.438,0.438-0.438h1.919c0.238,0,0.439,0.201,0.439,0.438V16.937z"/></svg>