<svg xmlns="http://www.w3.org/2000/svg" version="1.1" viewBox="-5.0 -10.0 110.0 135.0">
 <g fill-rule="evenodd">
  <path d="m46.875 62.895c-5.3906 1.3867-9.375 6.2812-9.375 12.105 0 6.9023 5.5977 12.5 12.5 12.5s12.5-5.5977 12.5-12.5c0-5.8242-3.9844-10.719-9.375-12.105v-34.77c0-1.7266-1.3984-3.125-3.125-3.125s-3.125 1.3984-3.125 3.125zm9.375 12.105c0-3.4531-2.7969-6.25-6.25-6.25s-6.25 2.7969-6.25 6.25 2.7969 6.25 6.25 6.25 6.25-2.7969 6.25-6.25z"/>
  <path d="m37.5 15.625c0-6.9023 5.5977-12.5 12.5-12.5s12.5 5.5977 12.5 12.5v41.422c5.6602 3.9492 9.375 10.516 9.375 17.953 0 12.082-9.793 21.875-21.875 21.875s-21.875-9.793-21.875-21.875c0-7.4375 3.7148-14.004 9.375-17.953zm12.5-6.25c-3.4531 0-6.25 2.7969-6.25 6.25v43.133c0 1.1172-0.59375 2.1484-1.5586 2.707-4.6797 2.7031-7.8164 7.7539-7.8164 13.535 0 8.6289 6.9961 15.625 15.625 15.625s15.625-6.9961 15.625-15.625c0-5.7812-3.1367-10.832-7.8164-13.535-0.96484-0.55859-1.5586-1.5898-1.5586-2.707v-43.133c0-3.4531-2.7969-6.25-6.25-6.25z"/>
 </g>
</svg>