<svg xmlns="http://www.w3.org/2000/svg" xmlns:xlink="http://www.w3.org/1999/xlink" version="1.1" x="0px" y="0px" viewBox="145 347 100 125" style="enable-background:new 145 347 100 100;" xml:space="preserve"><path d="M182.3,364.4c16.7-12.3,32.2-14,41.6-4.4c2.1,2.2,3.2,3.9,3.7,5.9c1,4.3-0.5,9.7-4.5,16c-7.5,12-16,13.9-24.9,16  c-5.5,1.3-11.2,2.6-16.9,6.3c-6.3,4.1-11.7,10.7-16.3,20.1l3.8,1.9c9.4-19.3,19.6-21.6,30.3-24.1c7.3-1.7,14.9-3.5,21.9-10.6  c1.9-2,3.8-4.4,5.6-7.2c4.6-7.4,6.3-13.9,5.1-19.3c-0.8-3.6-3-6.1-4.8-7.9c-11-11.2-28.6-9.7-47.1,3.9c-10.9,8.1-20.6,19.4-26.4,31  c-6.6,13-7.7,25.1-3.3,34l3.8-2C145.6,407.1,161.9,379.6,182.3,364.4z"/><path d="M239.8,368l-3.8,2c8.4,16.9-7.9,44.4-28.4,59.6c-16.7,12.3-32.2,14-41.6,4.4c-2.1-2.2-3.2-3.9-3.7-5.9  c-1-4.3,0.5-9.7,4.5-16c7.5-12,16-13.9,24.9-16c5.5-1.3,11.2-2.6,16.9-6.3c6.3-4.1,11.7-10.7,16.3-20.1l-3.8-1.9  c-9.4,19.3-19.6,21.6-30.3,24.1c-9.4,2.2-19,4.4-27.5,17.9c-4.6,7.3-6.3,13.8-5.1,19.3c0.8,3.6,3,6.1,4.8,8  c11,11.2,28.6,9.7,47.1-3.9c3.8-2.8,7.4-5.9,10.7-9.4c6.4-6.5,11.8-14,15.7-21.6C243.1,389.1,244.3,377,239.8,368z"/></svg>