<svg xmlns="http://www.w3.org/2000/svg" version="1.1" viewBox="-5.0 -10.0 110.0 135.0">
 <path d="m74 27.898v-5.8984h2c1.1016 0 2-0.89844 2-2v-8c0-1.1016-0.89844-2-2-2h-52c-1.1016 0-2 0.89844-2 2v8c0 1.1016 0.89844 2 2 2h2v5.8984c0 10.398 8 19.102 18.102 20.199v3.9023c-10.102 1.1016-18.102 9.6992-18.102 20.102v5.8984h-2c-1.1016 0-2 0.89844-2 2v8c0 1.1016 0.89844 2 2 2h52c1.1016 0 2-0.89844 2-2v-8c0-1.1016-0.89844-2-2-2h-2v-5.8984c0-10.398-8-19.102-18.102-20.199v-3.9023c10.102-1.1016 18.102-9.6992 18.102-20.102zm-48-13.898h48v4h-48zm48 72h-48v-4h48zm-20.199-30.102c9 0 16.199 7.3008 16.199 16.203v5.8984h-40v-5.8984c0-8.8984 7.1992-16.199 16.199-16.301 1.1016 0 2-0.89844 2-2v-7.6992c0-1.1016-0.89844-2-2-2-9 0-16.199-7.3008-16.199-16.203v-5.8984h40v5.8984c0 8.8984-7.1992 16.199-16.199 16.301-1.1016 0-2 0.89844-2 2v7.6992c0.097657 1.1016 0.89844 2 2 2zm12.199-25.898c0-1.1016-0.89844-2-2-2h-28c-1.1016 0-2 0.89844-2 2 0 5.5 4.5 10 10 10h12c5.5 0 10-4.5 10-10zm-27.699 2h23.301c-0.80078 2.3008-3.1016 4-5.6992 4h-11.902c-2.6016 0-4.8008-1.6992-5.6992-4zm10.398 26.5-14 12c-0.60156 0.5-0.89844 1.3984-0.60156 2.1992 0.30078 0.80078 1 1.3008 1.8984 1.3008h28c0.80078 0 1.6016-0.5 1.8984-1.3008 0.30078-0.80078 0.10156-1.6992-0.60156-2.1992l-14-12c-0.69141-0.69922-1.8945-0.69922-2.5938 0zm-7.3008 11.5 8.6016-7.3984 8.6016 7.3984z"/>
</svg>