<svg xmlns="http://www.w3.org/2000/svg" version="1.1" viewBox="-5.0 -10.0 110.0 135.0">
 <g>
  <path d="m50 74.5c11.602 0 21-9.5 21.102-21.102 0-7.1016-4.6016-14.199-9.5-21.801-4.3008-6.5977-8.7031-13.398-10.301-20.598-0.10156-0.60156-0.69922-1-1.3008-1s-1.1016 0.39844-1.3008 1c-1.6992 7.1992-6.1016 14-10.301 20.602-4.8984 7.6016-9.5 14.801-9.5 21.801 0.10156 11.699 9.5 21.098 21.102 21.098zm-9.3984-41.5c3.6016-5.5 7.1992-11.199 9.3984-17.199 2.1992 6 5.8984 11.699 9.3984 17.199 4.6992 7.3008 9.1016 14.102 9.1016 20.398 0 10.301-8.3008 18.602-18.5 18.602s-18.5-8.3008-18.5-18.5c0-6.3984 4.3984-13.199 9.1016-20.5z"/>
  <path d="m50 67.602c0.69922 0 1.3008-0.60156 1.3008-1.3008s-0.60156-1.3008-1.3008-1.3008c-6.6016 0-12-5.3984-12-12 0-0.69922-0.60156-1.3008-1.3008-1.3008s-1.3008 0.60156-1.3008 1.3008c0 8.1016 6.6016 14.602 14.602 14.602z"/>
  <path d="m82.102 63.102c-0.60156-0.30078-1.3984-0.10156-1.8008 0.5-0.30078 0.60156-0.10156 1.3984 0.5 1.8008 4.1992 2.3008 6.5 5.1016 6.5 7.8008 0 7.6992-17.102 14.199-37.398 14.199-20.301 0-37.398-6.5-37.398-14.199 0-2.6992 2.3008-5.5 6.5-7.8008 0.60156-0.30078 0.80078-1.1016 0.5-1.8008-0.30078-0.60156-1.1016-0.80078-1.8008-0.5-5.0039 2.8984-7.7031 6.3984-7.7031 10.098 0 9.4023 17.602 16.801 40 16.801s40-7.3984 40-16.801c0-3.6992-2.6992-7.1992-7.8984-10.098z"/>
  <path d="m50 82.199c13.102 0 26.301-3.1016 26.301-8.8984 0-2-1.6016-3.8008-4.6992-5.3008-0.60156-0.30078-1.3984 0-1.6992 0.60156-0.30078 0.60156 0 1.3984 0.60156 1.6992 2 1 3.1992 2.1016 3.1992 3 0 2.6992-9 6.3984-23.699 6.3984-14.699 0-23.699-3.6992-23.699-6.3984 0-0.89844 1.1992-2 3.1992-3 0.60156-0.30078 0.89844-1.1016 0.60156-1.6992-0.30078-0.60156-1.1016-0.89844-1.6992-0.60156-3.1016 1.5-4.6992 3.3008-4.6992 5.3008-0.007812 5.8008 13.191 8.8984 26.293 8.8984z"/>
 </g>
</svg>